<?xml version="1.0" encoding="UTF-8" standalone="no"?>
<!-- Created with Inkscape (http://www.inkscape.org/) -->

<svg
   xmlns:dc="http://purl.org/dc/elements/1.1/"
   xmlns:cc="http://creativecommons.org/ns#"
   xmlns:rdf="http://www.w3.org/1999/02/22-rdf-syntax-ns#"
   xmlns:svg="http://www.w3.org/2000/svg"
   xmlns="http://www.w3.org/2000/svg"
   xmlns:xlink="http://www.w3.org/1999/xlink"
   xmlns:sodipodi="http://sodipodi.sourceforge.net/DTD/sodipodi-0.dtd"
   xmlns:inkscape="http://www.inkscape.org/namespaces/inkscape"
   width="90"
   height="90"
   viewBox="0 0 23.8125 23.812501"
   version="1.1"
   id="svg828"
   inkscape:version="0.92.4 (5da689c313, 2019-01-14)"
   sodipodi:docname="iconBounce.svg"
   inkscape:export-filename="/home/yurii/ControlYandexMusic/img/iconY.png"
   inkscape:export-xdpi="92"
   inkscape:export-ydpi="92">
  <defs
     id="defs822">
    <linearGradient
       inkscape:collect="always"
       id="linearGradient842">
      <stop
         style="stop-color:#ffffff;stop-opacity:1"
         offset="0"
         id="stop838" />
      <stop
         style="stop-color:#ffcc00;stop-opacity:1"
         offset="1"
         id="stop840" />
    </linearGradient>
    <radialGradient
       inkscape:collect="always"
       xlink:href="#linearGradient842"
       id="radialGradient844"
       cx="11.90625"
       cy="285.09372"
       fx="11.90625"
       fy="285.09372"
       r="11.90625"
       gradientUnits="userSpaceOnUse" />
  </defs>
  <sodipodi:namedview
     id="base"
     pagecolor="#ffffff"
     bordercolor="#666666"
     borderopacity="1.0"
     inkscape:pageopacity="0.0"
     inkscape:pageshadow="2"
     inkscape:zoom="2.8284271"
     inkscape:cx="30.92866"
     inkscape:cy="21.781299"
     inkscape:document-units="px"
     inkscape:current-layer="layer1"
     showgrid="false"
     units="px"
     inkscape:pagecheckerboard="true"
     inkscape:window-width="1366"
     inkscape:window-height="728"
     inkscape:window-x="0"
     inkscape:window-y="0"
     inkscape:window-maximized="1"
     inkscape:showpageshadow="false"
     showborder="true" />
  <metadata
     id="metadata825">
    <rdf:RDF>
      <cc:Work
         rdf:about="">
        <dc:format>image/svg+xml</dc:format>
        <dc:type
           rdf:resource="http://purl.org/dc/dcmitype/StillImage" />
        <dc:title />
      </cc:Work>
    </rdf:RDF>
  </metadata>
  <g
     inkscape:label="Layer 1"
     inkscape:groupmode="layer"
     id="layer1"
     transform="translate(0,-273.18748)">
    <path
       style="fill:#ff3333;fill-opacity:1;stroke:#ffcc00;stroke-width:0.3562417;stroke-linecap:round;stroke-linejoin:round;stroke-miterlimit:4;stroke-dasharray:none;stroke-opacity:1"
       d="m 9.0009024,278.85845 c -0.0298,-0.0805 -0.0894,-0.13409 -0.1787917,-0.16091 -0.0894,-0.0269 -0.1936897,-0.0403 -0.3128827,-0.0403 H 6.0061607 c -0.1191931,0 -0.2234859,0.0134 -0.3128816,0.0403 -0.0894,0.0269 -0.1489932,0.0806 -0.1787915,0.16091 -0.0298,0.0806 -0.0447,0.17433 -0.0447,0.28158 v 0.32183 11.26371 0.32183 c 0,0.10726 0.0149,0.20114 0.0447,0.28159 0.0298,0.0805 0.08939,0.13408 0.1787915,0.1609 0.0894,0.0269 0.1936885,0.0403 0.3128816,0.0403 H 8.509228 c 0.119193,0 0.2234869,-0.0133 0.3128827,-0.0403 0.089401,-0.0269 0.1489927,-0.0806 0.1787917,-0.1609 0.0298,-0.0806 0.04471,-0.17433 0.04471,-0.28159 v -0.32183 -0.32182 l 9.6e-5,-4.86753 c 0,0 5.8221116,3.42737 9.2970046,5.67208 0,-4.07639 0,-8.15277 0,-12.22918 l -9.2970046,5.67209 c 2.86e-4,-3.45872 -9.6e-5,-5.18935 -9.6e-5,-5.18935 l 9.6e-5,-0.32183 c 3.3e-5,-0.10726 -0.015,-0.20113 -0.0448,-0.28158"
       id="path885"
       inkscape:connector-curvature="0"
       sodipodi:nodetypes="csccsssccsssccssscccccccsc" />
    <rect
       style="opacity:1;fill:#ffcc00;fill-opacity:1;stroke:#ff3333;stroke-width:4.13496876;stroke-linecap:round;stroke-linejoin:round;stroke-miterlimit:4;stroke-dasharray:none;stroke-dashoffset:0;stroke-opacity:1;paint-order:stroke fill markers"
       id="rect1404"
       width="19.677532"
       height="19.677532"
       x="-28.733829"
       y="275.57095"
       ry="1.3843489" />
    <path
       style="fill:#000000;fill-opacity:0;stroke-width:0.1330304"
       d="m -21.927777,282.63576 v -0.0661 h 0.06704 0.06703 0.06703 0.06704 0.06703 0.06704 0.06703 0.06704 0.06703 0.06703 0.06703 0.06703 0.06703 0.06703 0.06703 0.06704 0.06704 0.06704 0.06704 0.06704 0.06704 0.06704 0.06704 0.06704 0.06704 0.06704 0.06704 0.06704 0.06704 0.06704 0.06704 0.06704 0.06704 0.06704 0.06704 0.06704 0.06704 0.06704 0.06704 0.06704 0.06704 0.06704 0.06704 0.06704 0.06704 0.06704 0.06704 0.06704 0.06704 0.06704 0.06704 0.06704 0.06704 0.06704 0.06704 0.06704 0.06704 0.06704 0.06704 0.06704 0.06704 0.06704 0.06704 0.06704 0.06704 0.06704 0.06704 0.06704 0.06704 0.06704 0.06704 0.06704 0.06704 0.06704 0.06704 0.06704 0.06704 0.06704 0.06704 0.06704 0.06704 0.06704 0.06704 0.06704 0.06704 0.06704 0.06704 0.06704 0.06704 0.06703 0.06704 0.06704 0.06704 0.06704 0.06704 0.06704 0.06704 0.06703 0.06704 0.06704 0.06704 0.06704 0.06704 0.06704 0.06704 0.06704 0.06704 0.06704 0.06704 0.06703 0.06704 0.06704 0.06704 0.06704 0.06704 0.06704 0.06704 0.06703 0.06704 0.06704 0.06704 0.06704 0.06704 0.06704 0.06704 0.06704 0.06704 0.06704 0.06704 0.06704 0.06704 0.06704 0.06704 0.06704 0.06704 0.06704 0.06704 0.06703 0.06704 0.06704 0.06704 0.06704 0.06704 0.06704 0.06704 0.06703 0.06704 0.06704 0.06704 0.06704 0.06704 0.06704 0.06704 0.06703 0.06704 0.06704 0.06704 0.06704 0.06704 0.06704 0.06704 0.06704 0.06704 0.06704 0.06704 0.06703 0.06704 0.06704 0.06704 0.06704 0.06704 0.06704 0.06704 0.06703 0.06704 0.06704 0.06704 0.06704 0.06704 0.06704 0.06704 0.06704 0.06704 0.06704 0.06704 0.06704 0.06704 0.06704 0.06704 0.06704 0.06704 0.06704 v 0.0661 0.066 0.0661 0.066 0.066 0.0661 0.066 0.0661 0.066 0.0661 0.066 0.0661 0.066 0.0661 0.066 0.0661 0.066 0.066 0.066 0.066 0.066 0.066 0.066 0.0661 0.066 0.0661 0.066 0.0661 0.066 0.0661 0.066 0.0661 0.066 0.0661 0.066 0.0661 0.066 0.0661 0.066 0.066 0.066 0.066 0.066 0.066 0.066 0.0661 0.066 0.0661 0.066 0.0661 0.066 0.0661 0.066 0.0661 0.066 0.066 0.0661 0.066 0.0661 0.066 0.0661 0.066 0.0661 0.066 0.0661 0.066 0.066 0.066 0.066 0.066 0.066 0.066 0.066 0.066 0.0661 0.066 0.0661 0.066 0.0661 0.066 0.0661 0.066 0.0661 0.066 0.0661 0.066 0.0661 0.066 0.066 0.066 0.066 0.066 0.066 0.066 0.066 0.066 0.0661 0.066 0.0661 0.066 0.0661 0.066 0.0661 0.066 0.066 0.0661 0.066 0.0661 0.066 0.0661 0.066 0.0661 0.066 0.0661 0.066 0.0661 0.066 0.066 0.066 0.066 0.066 0.066 0.066 0.066 0.066 0.0661 0.066 0.0661 0.066 0.0661 0.066 0.0661 0.066 0.0661 0.066 0.0661 0.066 0.0661 0.066 0.066 0.066 0.066 0.066 0.066 0.066 0.066 0.066 0.0661 0.066 0.0661 0.066 0.0661 0.066 0.0661 0.066 0.066 0.0661 0.066 0.0661 0.066 0.0661 0.066 0.0661 0.066 0.0661 0.066 0.0661 0.066 0.066 0.066 0.066 0.066 0.066 0.066 0.0661 0.066 0.0661 0.066 0.0661 0.066 0.0661 0.066 0.0661 0.066 0.0661 0.066 0.0661 0.066 0.0661 0.066 0.066 0.066 h -0.06704 -0.06704 -0.06704 -0.06704 -0.06704 -0.06704 -0.06704 -0.06704 -0.06704 -0.06704 -0.06704 -0.06704 -0.06704 -0.06704 -0.06704 -0.06704 -0.06704 -0.06704 -0.06703 -0.06704 -0.06704 -0.06704 -0.06704 -0.06704 -0.06704 -0.06704 -0.06703 -0.06704 -0.06704 -0.06704 -0.06704 -0.06704 -0.06704 -0.06704 -0.06704 -0.06704 -0.06704 -0.06704 -0.06703 -0.06704 -0.06704 -0.06704 -0.06704 -0.06704 -0.06704 -0.06704 -0.06703 -0.06704 -0.06704 -0.06704 -0.06704 -0.06704 -0.06704 -0.06704 -0.06703 -0.06704 -0.06704 -0.06704 -0.06704 -0.06704 -0.06704 -0.06704 -0.06704 -0.06704 -0.06704 -0.06704 -0.06704 -0.06704 -0.06704 -0.06704 -0.06704 -0.06704 -0.06704 -0.06704 -0.06703 -0.06704 -0.06704 -0.06704 -0.06704 -0.06704 -0.06704 -0.06704 -0.06703 -0.06704 -0.06704 -0.06704 -0.06704 -0.06704 -0.06704 -0.06704 -0.06704 -0.06704 -0.06704 -0.06704 -0.06703 -0.06704 -0.06704 -0.06704 -0.06704 -0.06704 -0.06704 -0.06704 -0.06703 -0.06704 -0.06704 -0.06704 -0.06704 -0.06704 -0.06704 -0.06704 -0.06704 -0.06704 -0.06704 -0.06704 -0.06704 -0.06704 -0.06704 -0.06704 -0.06704 -0.06704 -0.06704 -0.06704 -0.06704 -0.06704 -0.06704 -0.06704 -0.06704 -0.06704 -0.06704 -0.06704 -0.06704 -0.06704 -0.06704 -0.06704 -0.06704 -0.06704 -0.06704 -0.06703 -0.06704 -0.06704 -0.06704 -0.06704 -0.06704 -0.06704 -0.06704 -0.06703 -0.06704 -0.06704 -0.06704 -0.06704 -0.06704 -0.06704 -0.06704 -0.06704 -0.06704 -0.06704 -0.06704 -0.06703 -0.06704 -0.06704 -0.06704 -0.06704 -0.06704 -0.06704 -0.06704 -0.06704 -0.06704 -0.06704 -0.06704 -0.06704 -0.06704 -0.06705 -0.06704 -0.06704 -0.06704 -0.06704 -0.06704 -0.06706 -0.06703 -0.06703 -0.06703 -0.06703 -0.06703 -0.06703 -0.06703 -0.06704 -0.06703 -0.06704 -0.06704 -0.06703 -0.06704 -0.06703 v -0.066 -0.066 -0.066 -0.0661 -0.066 -0.0661 -0.066 -0.0661 -0.066 -0.0661 -0.066 -0.0661 -0.066 -0.0661 -0.066 -0.0661 -0.066 -0.0661 -0.066 -0.066 -0.066 -0.066 -0.066 -0.066 -0.066 -0.0661 -0.066 -0.0661 -0.066 -0.0661 -0.066 -0.0661 -0.066 -0.0661 -0.066 -0.0661 -0.066 -0.066 -0.0661 -0.066 -0.0661 -0.066 -0.0661 -0.066 -0.0661 -0.066 -0.066 -0.066 -0.066 -0.066 -0.066 -0.066 -0.066 -0.066 -0.0661 -0.066 -0.0661 -0.066 -0.0661 -0.066 -0.0661 -0.066 -0.0661 -0.066 -0.0661 -0.066 -0.0661 -0.066 -0.066 -0.066 -0.066 -0.066 -0.066 -0.066 -0.066 -0.066 -0.0661 -0.066 -0.0661 -0.066 -0.0661 -0.066 -0.0661 -0.066 -0.0661 -0.066 -0.0661 -0.066 -0.066 -0.0661 -0.066 -0.0661 -0.066 -0.0661 -0.066 -0.0661 -0.066 -0.066 -0.066 -0.066 -0.066 -0.066 -0.066 -0.066 -0.066 -0.0661 -0.066 -0.0661 -0.066 -0.0661 -0.066 -0.0661 -0.066 -0.0661 -0.066 -0.0661 -0.066 -0.0661 -0.066 -0.066 -0.066 -0.066 -0.066 -0.066 -0.066 -0.066 -0.066 -0.0661 -0.066 -0.0661 -0.066 -0.0661 -0.066 -0.0661 -0.066 -0.0661 -0.066 -0.066 -0.0661 -0.066 -0.0661 -0.066 -0.0661 -0.066 -0.0661 -0.066 -0.0661 -0.066 -0.066 -0.066 -0.066 -0.066 -0.066 -0.066 -0.0661 -0.066 -0.0661 -0.066 -0.0661 -0.066 -0.0661 -0.066 -0.0661 -0.066 -0.0661 -0.066 -0.0661 -0.066 -0.0661 -0.066 -0.066 -0.066 -0.066 -0.066 -0.066 -0.066 -0.0661 -0.066 -0.0661 -0.066 -0.0661 -0.066 -0.0661 -0.066 -0.0661 -0.066 -0.0661 -0.066 -0.066 -0.0661 -0.066 m 8.647422,8.91001 q 0.06704,0 0.11731,-0.0166 0.05028,-0.0166 0.06704,-0.0661 0.01676,-0.0495 0.01676,-0.11549 0,-0.0661 0,-0.13201 0,-0.066 0,-0.132 0,-0.066 0,-0.132 0,-0.066 0,-0.13201 0,-0.066 0,-0.13198 0,-0.0661 0,-0.13201 0,-0.066 0,-0.132 0,-0.0661 0,-0.132 0,-0.066 0,-0.132 0,-0.0661 0,-0.132 0,-0.066 0,-0.132 0,-0.066 0,-0.132 0,-0.066 0,-0.132 0,-0.066 0,-0.132 0,-0.066 0,-0.132 0,-0.066 0,-0.132 0,-0.0661 0,-0.13201 0,-0.066 0,-0.13199 0,-0.0661 0,-0.13201 0,-0.066 0,-0.132 0,-0.066 0,-0.13199 0,-0.0661 0,-0.13201 0,-0.066 0,-0.13199 0,-0.066 0,-0.13201 0,-0.066 0,-0.13199 0,-0.066 0,-0.132 0,-0.0661 0,-0.132 0,-0.0661 0,-0.132 0,-0.0661 0,-0.13201 0,-0.066 0,-0.13199 0,-0.0661 0,-0.132 0,-0.066 0,-0.132 0,-0.0661 0,-0.132 0,-0.066 0,-0.132 0,-0.066 0,-0.13201 0,-0.066 0,-0.132 0,-0.066 0,-0.132 0,-0.0661 -0.01676,-0.1155 -0.01676,-0.0495 -0.06704,-0.066 -0.05028,-0.0166 -0.11731,-0.0166 -0.06704,0 -0.134069,0 -0.06704,0 -0.134067,0 -0.06704,0 -0.13407,0 -0.06704,0 -0.134068,0 -0.06704,0 -0.134068,0 -0.06704,0 -0.134069,0 -0.06704,0 -0.134069,0 -0.06704,0 -0.11731,0.0166 -0.05028,0.0166 -0.06704,0.066 -0.01676,0.0495 -0.01676,0.1155 0,0.066 0,0.132 0,0.0661 0,0.132 0,0.0661 0,0.13201 0,0.066 0,0.132 0,0.0661 0,0.132 0,0.066 0,0.132 0,0.0661 0,0.132 0,0.066 0,0.13199 0,0.0661 0,0.13201 0,0.066 0,0.132 0,0.066 0,0.132 0,0.066 0,0.132 0,0.066 0,0.13199 0,0.0661 0,0.13201 0,0.066 0,0.13199 0,0.066 -0.06704,0.066 -0.06704,0 -0.11731,-0.0166 -0.05028,-0.0166 -0.08379,-0.0495 -0.03352,-0.033 -0.06704,-0.066 -0.03352,-0.033 -0.06704,-0.066 -0.03352,-0.033 -0.08379,-0.0495 l -0.05028,-0.0166 -0.05028,-0.0166 q -0.05028,-0.0166 -0.08379,-0.0495 -0.03352,-0.033 -0.06704,-0.066 -0.03352,-0.033 -0.06703,-0.0661 -0.03352,-0.033 -0.08379,-0.0495 -0.05028,-0.0166 -0.06704,-0.066 -0.01676,-0.0495 -0.06704,-0.066 -0.05028,-0.0166 -0.100552,-0.033 -0.05028,-0.0166 -0.08379,-0.0495 -0.03352,-0.033 -0.06704,-0.066 -0.03352,-0.033 -0.06703,-0.066 -0.03352,-0.033 -0.08379,-0.0495 l -0.05028,-0.0166 -0.05028,-0.0166 q -0.05028,-0.0166 -0.08379,-0.0495 -0.03352,-0.033 -0.06704,-0.066 -0.03352,-0.033 -0.06704,-0.066 -0.03352,-0.033 -0.08379,-0.0495 -0.05028,-0.0166 -0.06704,-0.0661 -0.01675,-0.0495 -0.06704,-0.066 -0.05028,-0.0166 -0.100551,-0.033 -0.05028,-0.0166 -0.08379,-0.0495 -0.03352,-0.033 -0.06704,-0.0661 -0.03352,-0.033 -0.06703,-0.066 -0.03352,-0.033 -0.08379,-0.0495 l -0.05028,-0.0166 -0.05028,-0.0166 q -0.05028,-0.0165 -0.08379,-0.0495 -0.03352,-0.033 -0.06704,-0.066 -0.03352,-0.033 -0.06703,-0.066 -0.03352,-0.033 -0.08379,-0.0495 -0.05028,-0.0165 -0.06704,-0.066 -0.01676,-0.0495 -0.06704,-0.066 -0.05028,-0.0165 -0.100551,-0.033 -0.05028,-0.0166 -0.08379,-0.0495 -0.03352,-0.033 -0.06704,-0.0661 -0.03352,-0.033 -0.06704,-0.066 -0.03352,-0.033 -0.08379,-0.0495 l -0.05028,-0.0166 -0.05028,0.0166 q -0.05028,0.0166 -0.06704,0.066 l -0.01676,0.0495 v 0.0661 q 0,0.066 0,0.132 0,0.0661 0,0.132 0,0.066 0,0.132 0,0.0661 0,0.132 0,0.066 0,0.132 0,0.066 0,0.13201 0,0.066 0,0.13199 0,0.066 0,0.132 0,0.0661 0,0.13201 0,0.066 0,0.13199 0,0.0661 0,0.13201 0,0.066 0,0.13198 0,0.066 0,0.13201 0,0.066 0,0.132 0,0.0661 0,0.132 0,0.0661 0,0.13201 0,0.066 0,0.13199 0,0.066 0,0.13201 0,0.066 0,0.132 0,0.0661 0,0.132 0,0.066 0,0.132 0,0.066 0,0.13199 0,0.0661 0,0.132 0,0.0661 0,0.13201 0,0.066 0,0.132 0,0.066 0,0.132 0,0.0661 0,0.13199 0,0.066 0,0.132 0,0.066 0,0.13201 0,0.066 0,0.13199 0,0.066 0,0.13201 0,0.066 0,0.132 0,0.066 0,0.13199 0,0.0661 0,0.13201 0,0.066 0,0.13199 0,0.0661 0,0.13201 0,0.066 0,0.13199 v 0.0661 l 0.01676,0.0495 q 0.01676,0.0495 0.06704,0.066 l 0.05028,0.0166 0.05028,-0.0166 q 0.05028,-0.0166 0.08379,-0.0495 0.03352,-0.033 0.06704,-0.066 0.03352,-0.033 0.06704,-0.0661 0.03352,-0.033 0.08379,-0.0495 0.05028,-0.0166 0.100551,-0.033 0.05028,-0.0166 0.06704,-0.066 0.01676,-0.0495 0.06704,-0.0661 0.05028,-0.0166 0.08379,-0.0495 0.03352,-0.033 0.06703,-0.066 0.03352,-0.033 0.06704,-0.066 0.03352,-0.033 0.08379,-0.0495 l 0.05028,-0.0166 0.05028,-0.0166 q 0.05028,-0.0166 0.08379,-0.0495 0.03352,-0.033 0.06703,-0.066 0.03352,-0.033 0.06704,-0.066 0.03352,-0.033 0.08379,-0.0495 0.05028,-0.0166 0.100551,-0.033 0.05028,-0.0166 0.06704,-0.066 0.01676,-0.0496 0.06704,-0.066 0.05028,-0.0166 0.08379,-0.0495 0.03352,-0.033 0.06704,-0.0661 0.03352,-0.033 0.06704,-0.066 0.03352,-0.033 0.08379,-0.0495 l 0.05028,-0.0166 0.05028,-0.0166 q 0.05028,-0.0166 0.08379,-0.0495 0.03352,-0.033 0.06703,-0.066 0.03352,-0.033 0.06704,-0.066 0.03352,-0.033 0.08379,-0.0495 0.05028,-0.0166 0.100552,-0.033 0.05028,-0.0166 0.06704,-0.066 0.01676,-0.0495 0.06704,-0.066 0.05028,-0.0166 0.08379,-0.0495 0.03352,-0.033 0.06703,-0.0661 0.03352,-0.033 0.06704,-0.066 0.03352,-0.033 0.08379,-0.0495 l 0.05028,-0.0166 0.05028,-0.0166 q 0.05028,-0.0166 0.08379,-0.0495 0.03352,-0.033 0.06704,-0.066 0.03352,-0.033 0.06704,-0.066 0.03352,-0.033 0.08379,-0.0495 0.05028,-0.0166 0.11731,-0.0166 0.06704,0 0.06704,0.066 0,0.066 0,0.132 0,0.0661 0,0.132 0,0.066 0,0.132 0,0.0661 0,0.13201 0,0.066 0,0.13199 0,0.066 0,0.132 0,0.0661 0,0.132 0,0.066 0,0.132 0,0.066 0,0.13201 0,0.066 0,0.13199 0,0.0661 0,0.13201 0,0.066 0,0.13199 0,0.0661 0,0.13201 0,0.066 0,0.132 0,0.066 0,0.132 0,0.066 0.01676,0.11549 0.01676,0.0495 0.06704,0.066 0.05028,0.0166 0.11731,0.0166 0.06704,0 0.134069,0 0.06703,0 0.134069,0 0.06704,0 0.134068,0 0.06704,0 0.134068,0 0.06704,0 0.13407,0 0.06704,0 0.134067,0 0.06704,0 0.134069,0"
       id="path879"
       inkscape:connector-curvature="0" />
    <g
       transform="matrix(0.96601581,0,0,0.69790681,-1.2741826,275.93042)"
       id="surface1"
       style="fill:#c1ff33;fill-opacity:1" />
    <circle
       style="opacity:1;fill:url(#radialGradient844);fill-opacity:1;stroke:none;stroke-width:3.5718751;stroke-linecap:round;stroke-linejoin:round;stroke-miterlimit:4;stroke-dasharray:none;stroke-dashoffset:0;stroke-opacity:1;paint-order:stroke fill markers"
       id="path822"
       cx="11.90625"
       cy="285.09372"
       r="11.90625" />
    <g
       id="g828"
       transform="matrix(0.99132772,0,0,0.99782093,0.56420992,0.33466572)">
      <path
         sodipodi:nodetypes="ccccccczc"
         style="fill:#ff3333;fill-opacity:1;stroke-width:0.99211693"
         id="path2-3"
         d="m 10.460778,275.03968 v 2.3434 c -0.0092,0.0521 -0.0092,0.10415 0,0.15623 v 11.74303 c -2.3238858,-0.46353 -1.9529641,2.08167 2.362663,1.74453 l 1.03e-4,-9.85236 c 5.938962,0.8625 5.972206,1.84563 5.972206,1.84563 0,0 1.186482,-3.65187 -0.02871,-5.2257 -1.21518,-1.57382 -5.085644,-0.68961 -8.306266,-2.75476 z"
         inkscape:connector-curvature="0" />
      <path
         id="path823"
         d="m 10.129555,291.09201 a 1.9315742,1.9315743 0 0 1 -1.9315741,1.93157 1.9315742,1.9315743 0 0 1 -1.9315742,-1.93157 1.9315742,1.9315743 0 0 1 1.9315742,-1.93157 1.9315742,1.9315743 0 0 1 1.9315741,1.93157 z"
         style="opacity:1;fill:#ffcc00;fill-opacity:1;stroke:#ff3333;stroke-width:5.3972683;stroke-linecap:round;stroke-linejoin:round;stroke-miterlimit:4;stroke-dasharray:none;stroke-dashoffset:0;stroke-opacity:1;paint-order:stroke fill markers"
         inkscape:connector-curvature="0" />
    </g>
  </g>
</svg>
