<svg id="Next" viewBox="0 0 100 100" fill="none" xmlns="http://www.w3.org/2000/svg">
<path class="svg-path-color" d="M90.9397 2C92.5264 2 93.8127 3.28631 93.8127 4.87305V94.8552C93.8127 96.442 92.5264 97.7283 90.9397 97.7283H72.4263C70.8396 97.7283 69.5533 96.442 69.5533 94.8552V55.5467L16.1301 91.143C14.3278 92.3439 12.0108 92.4555 10.1014 91.4333C8.19196 90.4111 7.00005 88.4211 7.00005 86.2553V12.8734C7.00005 10.7076 8.19196 8.71751 10.1014 7.69532C12.0108 6.67313 14.3278 6.7847 16.1301 7.98563L69.5533 43.582V4.87305C69.5533 3.28631 70.8396 2 72.4263 2H90.9397Z" fill="#FFCC00"/>
<path fill-rule="evenodd" clip-rule="evenodd" d="M87.2359 13.6399C87.2359 10.366 84.9003 7.41955 81.683 7.41955C78.4657 7.41955 76.1301 10.366 76.1301 13.6399V86.0883C76.1301 89.3622 78.4657 92.3087 81.683 92.3087C84.9003 92.3087 87.2359 89.3622 87.2359 86.0883V13.6399Z" fill="white" fill-opacity="0.941176"/>
<path fill-rule="evenodd" clip-rule="evenodd" d="M21.3566 71.0903C20.8843 70.8359 20.5898 70.3428 20.5898 69.8063L20.5898 29.9215C20.5898 29.3851 20.8843 28.8919 21.3566 28.6375C21.8289 28.3831 22.4027 28.4085 22.8506 28.7036L53.1203 48.646C53.5298 48.9159 53.7763 49.3735 53.7763 49.8639C53.7763 50.3544 53.5298 50.812 53.1203 51.0818L22.8506 71.0242C22.4027 71.3193 21.8289 71.3447 21.3566 71.0903Z" fill="white" fill-opacity="0.941176"/>
</svg>
