<?xml version="1.0" encoding="UTF-8" standalone="no"?>
<svg
   xmlns:dc="http://purl.org/dc/elements/1.1/"
   xmlns:cc="http://creativecommons.org/ns#"
   xmlns:rdf="http://www.w3.org/1999/02/22-rdf-syntax-ns#"
   xmlns:svg="http://www.w3.org/2000/svg"
   xmlns="http://www.w3.org/2000/svg"
   xmlns:xlink="http://www.w3.org/1999/xlink"
   xmlns:sodipodi="http://sodipodi.sourceforge.net/DTD/sodipodi-0.dtd"
   xmlns:inkscape="http://www.inkscape.org/namespaces/inkscape"
   viewBox="0 0 30 30"
   version="1.1"
   id="svg4"
   sodipodi:docname="owl.svg"
   inkscape:version="0.92.5 (2060ec1f9f, 2020-04-08)"
   inkscape:export-filename="/home/yurii/ControlYandexMusic/img/owl.png"
   inkscape:export-xdpi="800"
   inkscape:export-ydpi="800">
  <metadata
     id="metadata10">
    <rdf:RDF>
      <cc:Work
         rdf:about="">
        <dc:format>image/svg+xml</dc:format>
        <dc:type
           rdf:resource="http://purl.org/dc/dcmitype/StillImage" />
        <dc:title />
      </cc:Work>
    </rdf:RDF>
  </metadata>
  <defs
     id="defs8">
    <linearGradient
       id="linearGradient862"
       inkscape:collect="always">
      <stop
         id="stop858"
         offset="0"
         style="stop-color:#008ca6;stop-opacity:1" />
      <stop
         id="stop860"
         offset="1"
         style="stop-color:#02276c;stop-opacity:1" />
    </linearGradient>
    <linearGradient
       inkscape:collect="always"
       id="linearGradient1752-6-7">
      <stop
         style="stop-color:#00d8ff;stop-opacity:1"
         offset="0"
         id="stop1773" />
      <stop
         style="stop-color:#1467ff;stop-opacity:1"
         offset="1"
         id="stop1775" />
    </linearGradient>
    <marker
       inkscape:stockid="Arrow1Lstart"
       orient="auto"
       refY="0.0"
       refX="0.0"
       id="marker1722"
       style="overflow:visible"
       inkscape:isstock="true">
      <path
         id="path1720"
         d="M 0.0,0.0 L 5.0,-5.0 L -12.5,0.0 L 5.0,5.0 L 0.0,0.0 z "
         style="fill-rule:evenodd;stroke:none;stroke-width:1pt;stroke-opacity:1;fill:#ffffff;fill-opacity:1"
         transform="scale(0.8) translate(12.5,0)" />
    </marker>
    <marker
       inkscape:stockid="Arrow1Lstart"
       orient="auto"
       refY="0.0"
       refX="0.0"
       id="Arrow1Lstart"
       style="overflow:visible"
       inkscape:isstock="true">
      <path
         id="path1444"
         d="M 0.0,0.0 L 5.0,-5.0 L -12.5,0.0 L 5.0,5.0 L 0.0,0.0 z "
         style="fill-rule:evenodd;stroke:none;stroke-width:1pt;stroke-opacity:1;fill:#ffffff;fill-opacity:1"
         transform="scale(0.8) translate(12.5,0)" />
    </marker>
    <linearGradient
       inkscape:collect="always"
       xlink:href="#linearGradient1752-6-7"
       id="linearGradient1778"
       x1="15.005466"
       y1="7.0234222"
       x2="15.005466"
       y2="26.798443"
       gradientUnits="userSpaceOnUse"
       gradientTransform="matrix(1.0000424,0,0,0.99809265,-6.3653575e-4,-0.99470761)" />
    <linearGradient
       inkscape:collect="always"
       xlink:href="#linearGradient862"
       id="linearGradient868"
       x1="15.25"
       y1="0.18750003"
       x2="15.3125"
       y2="29.5625"
       gradientUnits="userSpaceOnUse" />
  </defs>
  <sodipodi:namedview
     pagecolor="#ffffff"
     bordercolor="#666666"
     borderopacity="1"
     objecttolerance="10"
     gridtolerance="10"
     guidetolerance="10"
     inkscape:pageopacity="0"
     inkscape:pageshadow="2"
     inkscape:window-width="1366"
     inkscape:window-height="709"
     id="namedview6"
     showgrid="false"
     inkscape:pagecheckerboard="true"
     inkscape:zoom="8"
     inkscape:cx="-18.076988"
     inkscape:cy="19.779286"
     inkscape:window-x="0"
     inkscape:window-y="0"
     inkscape:window-maximized="1"
     inkscape:current-layer="svg4" />
  <circle
     style="opacity:1;fill:url(#linearGradient868);fill-opacity:1;stroke:none;stroke-width:4.84747648;stroke-linecap:round;stroke-linejoin:round;stroke-miterlimit:10;stroke-dasharray:none;stroke-dashoffset:0;stroke-opacity:1;paint-order:stroke markers fill"
     id="path848"
     cx="15"
     cy="15"
     r="15" />
  <path
     d="m 8.9997457,1.9995707 a 1.0001425,0.99819242 0 1 0 0,1.9961854 c 2.7737853,0 5.0002143,2.2220873 5.0002143,4.990464 v 1.9961819 a 1.0001425,0.99819242 0 1 0 2.000083,0 V 8.9862201 c 0,-2.7683767 2.226429,-4.990464 5.000212,-4.990464 a 1.0001425,0.99819242 0 1 0 0,-1.9961854 c -1.184405,0 -2.30152,0.2983708 -3.281386,0.8206971 -0.786075,-0.5135928 -1.72075,-0.8206971 -2.730587,-0.8206971 -1.006529,0 -1.943612,0.2999375 -2.728632,0.8109502 C 11.284776,2.2950536 10.17579,1.9995707 8.9997457,1.9995707 Z M 10.999831,6.9900342 A 1.0000424,0.9980926 0 0 0 9.9997886,7.9881266 1.0000424,0.9980926 0 0 0 10.999831,8.9862201 1.0000424,0.9980926 0 0 0 11.999872,7.9881266 1.0000424,0.9980926 0 0 0 10.999831,6.9900342 Z m 8.00034,0 A 1.0000424,0.9980926 0 0 0 18.000128,7.9881266 1.0000424,0.9980926 0 0 0 19.000171,8.9862201 1.0000424,0.9980926 0 0 0 20.000214,7.9881266 1.0000424,0.9980926 0 0 0 19.000171,6.9900342 Z M 6.999661,8.9862201 A 1.0000424,0.9980926 0 0 0 6.0191505,9.7893699 c -0.9294162,2.9198681 -2.019617,7.3825811 -2.019617,14.1682361 4.0001697,0 5.0002122,-2.994276 5.0002122,-2.994276 0,0 1.0393183,1.516995 3.0802093,2.389963 -0.548189,0.535183 -0.910194,1.046826 -0.910194,1.046826 a 1.0001425,0.99819242 0 1 0 1.660225,1.111159 c 0,0 0.276929,-0.405406 0.726594,-0.818747 0.449663,-0.413344 1.017236,-0.734925 1.44342,-0.734925 0.426186,0 0.993758,0.321581 1.44342,0.734925 0.449668,0.413341 0.726595,0.818747 0.726595,0.818747 a 1.0001425,0.99819242 0 1 0 1.660227,-1.111159 c 0,0 -0.362005,-0.511643 -0.910194,-1.046826 2.040891,-0.872968 3.080207,-2.389963 3.080207,-2.389963 0,0 1.000044,2.994276 5.000211,2.994276 0,-6.797505 -1.09305,-11.266256 -2.023521,-14.1857811 A 1.0000424,0.9980926 0 0 0 23.000341,8.9862201 1.0000424,0.9980926 0 0 0 22.000299,9.9843073 C 22.000299,16.92804 18.065131,20.96333 15,20.96333 c -3.06513,0 -7.0002968,-4.03529 -7.0002968,-10.9790227 A 1.0000424,0.9980926 0 0 0 6.999661,8.9862201 Z"
     id="path2"
     style="fill:#ffffff;fill-opacity:1;stroke:url(#linearGradient1778);stroke-width:0.99906701;stroke-opacity:1"
     inkscape:connector-curvature="0" />
</svg>
