<svg width="100" height="100" viewBox="0 0 100 100" fill="none" xmlns="http://www.w3.org/2000/svg">
<path fill-rule="evenodd" clip-rule="evenodd" d="M55.0002 9.9095C55.0002 4.43663 59.4368 0 64.9097 0H75.0903C80.5632 0 84.9998 4.43663 84.9998 9.9095V90.0901C84.9998 95.563 80.5632 99.9996 75.0903 99.9996H64.9097C59.4368 99.9996 55.0002 95.563 55.0002 90.0901V9.9095Z" fill="#FFCC00"/>
<path fill-rule="evenodd" clip-rule="evenodd" d="M62 12.9871C62 9.68039 64.6806 6.99979 67.9873 6.99979H72.0127C75.3194 6.99979 78 9.68039 78 12.9871V87.0125C78 90.3192 75.3194 92.9998 72.0127 92.9998H67.9873C64.6806 92.9998 62 90.3192 62 87.0125V12.9871Z" fill="#FFFEFF"/>
<path fill-rule="evenodd" clip-rule="evenodd" d="M15 9.9097C15 4.43683 19.4366 0.000198364 24.9095 0.000198364H35.0901C40.563 0.000198364 44.9996 4.43683 44.9996 9.9097V90.0903C44.9996 95.5632 40.563 99.9998 35.0901 99.9998H24.9095C19.4366 99.9998 15 95.5632 15 90.0903V9.9097Z" fill="#FFCC00"/>
<path fill-rule="evenodd" clip-rule="evenodd" d="M21.9998 12.9873C21.9998 9.68058 24.6804 6.99999 27.9871 6.99999H32.0125C35.3192 6.99999 37.9998 9.68058 37.9998 12.9873V87.0127C37.9998 90.3194 35.3192 93 32.0125 93H27.9871C24.6804 93 21.9998 90.3194 21.9998 87.0127V12.9873Z" fill="#FFFEFF"/>
</svg>
