<svg id="Previous" viewBox="0 0 100 100" fill="none" xmlns="http://www.w3.org/2000/svg">
<path class="svg-path-color" d="M9.87305 2C8.28631 2 7 3.28631 7 4.87305V94.8552C7 96.442 8.28631 97.7283 9.87305 97.7283H28.3864C29.9731 97.7283 31.2594 96.442 31.2594 94.8552V55.5467L84.6826 91.143C86.485 92.3439 88.802 92.4555 90.7114 91.4333C92.6208 90.4111 93.8127 88.4211 93.8127 86.2553V12.8734C93.8127 10.7076 92.6208 8.71751 90.7114 7.69532C88.802 6.67313 86.485 6.7847 84.6826 7.98563L31.2594 43.582V4.87305C31.2594 3.28631 29.9731 2 28.3864 2H9.87305Z" fill="#FFCC00"/>
<path fill-rule="evenodd" clip-rule="evenodd" d="M13.5768 13.6399C13.5768 10.366 15.9125 7.41955 19.1297 7.41955C22.347 7.41955 24.6826 10.366 24.6826 13.6399V86.0883C24.6826 89.3622 22.347 92.3087 19.1297 92.3087C15.9125 92.3087 13.5768 89.3622 13.5768 86.0883V13.6399Z" fill="white" fill-opacity="0.941176"/>
<path fill-rule="evenodd" clip-rule="evenodd" d="M79.4562 71.0903C79.9284 70.8359 80.2229 70.3428 80.2229 69.8063L80.2229 29.9215C80.2229 29.3851 79.9284 28.8919 79.4561 28.6375C78.9839 28.3831 78.4101 28.4085 77.9621 28.7036L47.6925 48.646C47.2829 48.9159 47.0364 49.3735 47.0364 49.8639C47.0364 50.3544 47.2829 50.812 47.6925 51.0818L77.9621 71.0242C78.4101 71.3193 78.9839 71.3447 79.4562 71.0903Z" fill="white" fill-opacity="0.941176"/>
</svg>
