<svg width="24" height="25" viewBox="0 0 24 25" fill="none" xmlns="http://www.w3.org/2000/svg">
<path fill-rule="evenodd" clip-rule="evenodd" d="M24 12.5C24 19.1274 18.6274 24.5 12 24.5C5.37256 24.5 0 19.1274 0 12.5C0 5.87256 5.37256 0.5 12 0.5C18.6274 0.5 24 5.87256 24 12.5ZM22.5 12.5C22.5 18.2991 17.7991 23 12 23C9.59106 23 7.37158 22.1887 5.59985 20.8247L20.0447 5.75195C19.8789 5.55444 19.7061 5.36328 19.5264 5.17871C19.478 5.12891 19.4292 5.07983 19.3799 5.03101C21.3062 6.93457 22.5 9.57788 22.5 12.5ZM19.0132 4.68555C17.1541 3.01587 14.6956 2 12 2C6.20093 2 1.5 6.70093 1.5 12.5C1.5 15.4902 2.74976 18.1882 4.75562 20.1006C4.66162 20.011 4.56934 19.9197 4.47876 19.8267L19.0002 4.67383C19.0046 4.67773 19.0088 4.68164 19.0132 4.68555ZM5.12842 20.4397C5.23291 20.5303 5.3396 20.6189 5.44775 20.7053C5.35596 20.6318 5.26514 20.5566 5.17578 20.4802C5.15991 20.4668 5.14404 20.4534 5.12842 20.4397Z" fill="#FF3333"/>
</svg>
