<svg width="24" height="24" viewBox="0 0 24 24" fill="none" xmlns="http://www.w3.org/2000/svg">
	<path id="dislike" d="M0.22 0.22C0.52 -0.08 1 -0.08 1.3 0.22L3.12 2C3.69 1.52 4.29 1.15 4.94 0.89C5.46 0.68 5.98 0.56 6.51 0.52C7.82 0.43 9.17 0.85 10.55 1.78C11.08 2.15 11.58 2.61 12.03 3.17C12.79 2.19 13.65 1.49 14.62 1.07C14.94 0.94 15.26 0.83 15.59 0.75C16.36 0.56 17.17 0.52 18.02 0.63C18.94 0.76 19.75 1.04 20.46 1.49C20.73 1.65 20.97 1.83 21.21 2.04C22.16 2.88 22.89 3.98 23.39 5.32C23.7 6.12 23.88 6.94 23.96 7.76C24.02 8.48 24 9.2 23.89 9.93C23.56 12.15 22.2 14.61 19.81 17.32C19.65 17.51 19.48 17.7 19.31 17.88L21.62 20.15C21.92 20.44 21.92 20.9 21.62 21.2C21.32 21.49 20.85 21.49 20.55 21.2L0.22 1.27C-0.08 0.98 -0.08 0.51 0.22 0.22ZM18.2 16.79C18.35 16.64 18.49 16.48 18.63 16.32C20.82 13.84 22.06 11.63 22.34 9.71C22.43 9.11 22.45 8.51 22.4 7.92C22.34 7.22 22.18 6.53 21.92 5.85C21.51 4.75 20.92 3.85 20.16 3.18C20.04 3.07 19.91 2.98 19.78 2.88C19.22 2.5 18.56 2.26 17.8 2.16C17.1 2.06 16.44 2.1 15.82 2.28C15.62 2.33 15.44 2.4 15.25 2.48C14.37 2.86 13.57 3.59 12.88 4.66C12.79 4.79 12.73 4.89 12.69 4.95L12.01 5.96L11.37 4.94C11.35 4.91 11.32 4.87 11.29 4.81C10.8 4.04 10.26 3.45 9.66 3.05C8.51 2.27 7.42 1.95 6.39 2.08C6.1 2.12 5.81 2.2 5.53 2.31C5.08 2.5 4.64 2.75 4.23 3.09L18.2 16.79ZM0.22 6.67C0.4 5.85 0.72 5.07 1.16 4.32L2.32 5.45C2.02 6.02 1.82 6.61 1.71 7.21C1.68 7.36 1.66 7.51 1.64 7.65C1.39 9.96 2.47 12.59 4.86 15.54C6.65 17.74 9.04 19.93 12.03 22.11C13.48 21.12 14.82 20.06 16.06 18.93L17.17 20.01C15.73 21.33 14.16 22.55 12.46 23.69L12 24L11.56 23.68C8.24 21.31 5.6 18.91 3.64 16.5C0.98 13.21 -0.21 10.21 0.08 7.49C0.11 7.21 0.16 6.94 0.22 6.67Z" fill="#FFFFFF" fill-opacity="1" fill-rule="evenodd"/>
</svg>
