<svg width="24" height="24" viewBox="0 0 24 24" fill="none" xmlns="http://www.w3.org/2000/svg">
	<path id="disliked" d="M0.12 -0.6C0.42 -0.89 0.89 -0.89 1.19 -0.6L3.01 1.19C3.58 0.71 4.19 0.34 4.83 0.08C5.35 -0.13 5.88 -0.25 6.41 -0.29C7.72 -0.38 9.06 0.04 10.45 0.97C10.98 1.33 11.47 1.8 11.92 2.36C12.68 1.38 13.55 0.68 14.52 0.26C14.84 0.12 15.16 0.02 15.49 -0.06C16.26 -0.25 17.06 -0.29 17.91 -0.18C18.83 -0.05 19.65 0.23 20.36 0.67C20.62 0.84 20.87 1.02 21.1 1.23C22.05 2.07 22.78 3.17 23.29 4.51C23.59 5.31 23.78 6.13 23.86 6.95C23.92 7.67 23.9 8.39 23.79 9.12C23.46 11.34 22.1 13.8 19.71 16.51C19.55 16.7 19.38 16.88 19.21 17.07L21.52 19.33C21.82 19.63 21.82 20.09 21.52 20.39C21.22 20.68 20.75 20.68 20.44 20.39L0.12 0.46C-0.18 0.16 -0.18 -0.3 0.12 -0.6ZM18.1 15.98C18.24 15.82 18.39 15.67 18.53 15.51C20.71 13.02 21.95 10.82 22.24 8.9C22.33 8.3 22.35 7.7 22.3 7.11C22.24 6.41 22.08 5.72 21.82 5.04C21.4 3.93 20.81 3.04 20.05 2.37C19.93 2.26 19.81 2.16 19.68 2.07C19.12 1.69 18.46 1.45 17.7 1.34C17 1.25 16.34 1.29 15.71 1.47C15.52 1.52 15.33 1.59 15.15 1.66C14.26 2.05 13.47 2.77 12.77 3.85C12.69 3.98 12.63 4.08 12.58 4.14L11.91 5.14L11.26 4.12C11.25 4.1 11.22 4.06 11.19 4C10.7 3.23 10.16 2.64 9.56 2.24C8.4 1.46 7.31 1.13 6.29 1.27C6 1.31 5.71 1.39 5.43 1.5C4.98 1.68 4.54 1.94 4.12 2.28L18.1 15.98ZM0.12 5.85C0.3 5.04 0.61 4.26 1.06 3.51L2.22 4.64C1.92 5.21 1.71 5.8 1.6 6.4C1.58 6.55 1.55 6.69 1.54 6.84C1.29 9.15 2.36 11.78 4.76 14.73C6.55 16.93 8.94 19.12 11.93 21.3C13.38 20.31 14.72 19.24 15.96 18.11L17.07 19.2C15.63 20.52 14.06 21.74 12.36 22.88L11.9 23.18L11.45 22.86C8.13 20.49 5.5 18.1 3.54 15.68C0.87 12.4 -0.31 9.4 -0.02 6.68C0.01 6.4 0.06 6.13 0.12 5.85Z" fill="#FF3333" fill-opacity="1" fill-rule="evenodd"/>
</svg>
