<svg width="200" height="200" fill="none" version="1.1" viewBox="0 0 200 200" xmlns="http://www.w3.org/2000/svg">
  <radialGradient id="paint_radial_20_3_0" cx="0" cy="0" r="1" gradientTransform="translate(125.5 63.5) rotate(107.48) scale(143.11 149.21)" gradientUnits="userSpaceOnUse">
   <stop stop-color="#000E33" offset="0"/>
   <stop stop-color="#00071A" offset="1"/>
  </radialGradient>
 </defs>
 <g>
  <rect width="200" height="200" fill="#fff"/>
  <circle cx="100" cy="100" r="100" fill="url(#paint_radial_20_3_0)"/>
  <path id="icon" d="m182.52 79.63c1.07-0.26 1.75-1.32 1.53-2.4-0.16-0.83-0.82-1.48-1.66-1.62l-11.71-2.04-13.67-2.38c-0.7-0.12-1.02-0.93-0.6-1.5l8.24-11.12 6.39-8.62c0.51-0.69 0.46-1.65-0.12-2.28-0.53-0.59-1.4-0.76-2.11-0.42l-21.44 10.26c-0.67 0.32-1.44-0.22-1.36-0.95l1.5-15.12 1.28-12.77c0.06-0.69-0.28-1.35-0.88-1.69-0.83-0.48-1.89-0.2-2.38 0.62l-4.44 7.5-8.45 14.26c-0.4 0.66-1.38 0.6-1.69-0.1l-6.77-15.12-8.59-19.18c-0.26-0.59-0.84-0.96-1.48-0.96-0.97 0-1.72 0.83-1.62 1.79l1.23 11.17 2.24 20.47c0.09 0.84-0.88 1.37-1.54 0.85l-16.13-12.87-22.9-18.26c-0.47-0.38-1.09-0.5-1.66-0.33-1.25 0.37-1.74 1.88-0.92 2.89l10.3 12.91 18.01 22.54c0.59 0.74-0.15 1.79-1.05 1.49l-58.88-19.54c-0.86-0.29-1.82-0.04-2.43 0.64-0.96 1.09-0.68 2.78 0.58 3.49l27.37 15.54 24.09 13.67c0.81 0.47 0.54 1.7-0.4 1.78l-27.61 2.28-45.34 3.74c-1.21 0.1-2.2 0.99-2.41 2.18-0.27 1.52 0.8 2.95 2.34 3.12l55.87 6.07 20.17 2.19c0.84 0.09 1.16 1.14 0.51 1.68l-15.64 12.89-48.35 39.87c-1.08 0.9-1.28 2.48-0.45 3.62 0.79 1.06 2.25 1.39 3.42 0.76l76.72-41.59c0.72-0.38 1.56 0.24 1.39 1.03l-3.74 18.05-11.16 53.78c-0.34 1.6 0.89 3.1 2.53 3.1 1.03 0 1.97-0.62 2.37-1.57l20.32-47.65 8.89-20.85c0.35-0.8 1.51-0.76 1.78 0.07l7.15 21.51 9.94 29.93c0.46 1.38 2.15 1.9 3.31 1.02 0.6-0.46 0.91-1.22 0.81-1.97l-3.41-25.37-3.74-27.91c-0.13-0.93 1.03-1.46 1.65-0.75l18.69 21.11 6.92 7.83c0.83 0.93 2.32 0.81 2.98-0.24 0.36-0.57 0.39-1.29 0.06-1.88l-9.79-17.92-10.93-20.02c-0.42-0.77 0.34-1.65 1.17-1.34l21.44 7.9 5.2 1.92c1.17 0.43 2.43-0.37 2.53-1.6 0.05-0.65-0.23-1.28-0.76-1.67l-12.12-8.91-13.49-9.91c-0.65-0.48-0.45-1.5 0.34-1.69l16.29-3.91 6.27-1.5z" fill="#FFBC0D" fill-rule="evenodd"/>
 </g>
</svg>
