<svg width="32" height="32" version="1.1" viewBox="0 0 8.4667 8.4667" xmlns="http://www.w3.org/2000/svg">
 <g fill="#fff">
  <path d="m4.2333 0.10583c-2.339 0-4.2333 1.8943-4.2333 4.2333 0 1.8733 1.2118 3.4554 2.8945 4.0161 0.21166 0.037147 0.29081-0.089842 0.29081-0.20099 0-0.10049-0.00511-0.43363-0.00511-0.78849-1.0635 0.19584-1.3385-0.25915-1.4231-0.49695-0.047853-0.12185-0.254-0.49769-0.43437-0.59819-0.14798-0.079512-0.35964-0.27534-0.0051129-0.28049 0.33351-0.0052173 0.57167 0.307 0.65119 0.434 0.38099 0.64052 0.98948 0.46015 1.2328 0.34898 0.036813-0.27498 0.14798-0.46015 0.26982-0.56616-0.94199-0.10564-1.926-0.47081-1.926-2.0901 0-0.46014 0.16381-0.84113 0.43363-1.1375-0.042333-0.10602-0.19031-0.54002 0.042333-1.122 0 0 0.35449-0.11117 1.1643 0.43401 0.33866-0.095373 0.69831-0.14283 1.0583-0.14283 0.35964 0 0.71966 0.047895 1.0583 0.14283 0.80984-0.55033 1.164-0.43401 1.164-0.43401 0.23301 0.58198 0.084667 1.016 0.042333 1.122 0.26982 0.29633 0.434 0.6718 0.434 1.1375 0 1.6245-0.98948 1.9841-1.9315 2.0901 0.1535 0.13252 0.28565 0.38652 0.28565 0.78335 0 0.56615-0.00511 1.0211-0.00511 1.164 0 0.11117 0.079512 0.24369 0.29081 0.20136 1.6727-0.56101 2.8841-2.1487 2.8841-4.0165 0-2.339-1.8943-4.2333-4.2333-4.2333z" fill="#000" stroke-width=".36811"/>
 </g>
</svg>
