<svg width="200" height="200" fill="none" version="1.1" viewBox="0 0 200 200" xmlns="http://www.w3.org/2000/svg">
 <desc>Created with Pixso.</desc>
 <radialGradient id="radial" cx="0" cy="0" r="1" gradientTransform="translate(121.99 83.684) rotate(130.63) scale(125.17 130.5)" gradientUnits="userSpaceOnUse">
  <stop stop-color="#001140" offset=".015285"/>
  <stop stop-color="#000A24" offset="1"/>
 </radialGradient>
 <path id="icon" d="m199.49 99.18c0 55.22-44.78 100-100 100-55.23 0-100-44.78-100-100 0-55.23 44.77-100 100-100 55.22 0 100 44.77 100 100z" fill="url(#radial)" fill-rule="evenodd"/>
 <path d="m185.33 78.08c1.14-0.27 1.85-1.39 1.62-2.52-0.17-0.88-0.87-1.56-1.75-1.71l-12.33-2.14-14.38-2.51c-0.74-0.12-1.08-0.98-0.64-1.58l8.68-11.7 6.72-9.08c0.54-0.73 0.49-1.73-0.12-2.4-0.56-0.62-1.47-0.8-2.23-0.44l-8.09 3.87-14.48 6.93c-0.7 0.33-1.51-0.23-1.43-1l1.59-15.92 1.34-13.44c0.07-0.72-0.29-1.42-0.92-1.78-0.88-0.5-1.99-0.21-2.51 0.66l-4.68 7.89-8.89 15.01c-0.42 0.7-1.45 0.64-1.78-0.1l-7.13-15.92-9.03-20.19c-0.28-0.62-0.89-1.01-1.57-1.01-1.01 0-1.81 0.88-1.7 1.89l1.29 11.75 2.37 21.55c0.09 0.89-0.93 1.45-1.63 0.89l-16.97-13.54-24.11-19.23c-0.5-0.39-1.15-0.52-1.75-0.34-1.32 0.38-1.83 1.98-0.97 3.05l10.85 13.58 18.95 23.73c0.62 0.78-0.16 1.88-1.1 1.57l-28.86-9.58-33.12-11c-0.91-0.3-1.92-0.03-2.55 0.68-1.02 1.14-0.72 2.92 0.6 3.68l28.82 16.35 25.35 14.4c0.85 0.48 0.57 1.78-0.42 1.86l-76.79 6.34c-1.27 0.1-2.32 1.05-2.54 2.3-0.28 1.6 0.85 3.1 2.46 3.28l58.81 6.39 21.24 2.31c0.88 0.09 1.21 1.2 0.53 1.76l-16.46 13.57-50.89 41.97c-1.15 0.95-1.35 2.62-0.47 3.81 0.83 1.12 2.37 1.47 3.6 0.8l80.75-43.77c0.75-0.41 1.64 0.24 1.46 1.08l-3.94 18.99-11.74 56.62c-0.35 1.68 0.94 3.26 2.66 3.26 1.09 0 2.07-0.65 2.5-1.65l21.39-50.16 9.36-21.95c0.36-0.84 1.58-0.79 1.87 0.08l7.52 22.64 10.47 31.5c0.48 1.46 2.26 2 3.48 1.07 0.63-0.48 0.96-1.27 0.86-2.06l-3.59-26.72-3.95-29.37c-0.13-0.98 1.09-1.54 1.75-0.79l19.67 22.22 7.28 8.24c0.87 0.98 2.44 0.86 3.14-0.25 0.38-0.6 0.41-1.36 0.07-1.98l-10.31-18.87-11.51-21.06c-0.44-0.82 0.36-1.74 1.23-1.42l28.05 10.34c1.23 0.45 2.55-0.39 2.66-1.69 0.05-0.68-0.25-1.34-0.8-1.75l-12.76-9.38-14.2-10.43c-0.69-0.5-0.47-1.58 0.36-1.78l17.14-4.11 6.6-1.59z" fill="#FFBC0D" fill-rule="evenodd"/>
</svg>
