<svg width="200.000000" height="200.000000" viewBox="0 0 200 200" fill="none" xmlns="http://www.w3.org/2000/svg" xmlns:xlink="http://www.w3.org/1999/xlink">
	<defs>
		<clipPath id="clip304_5">
			<rect id="Icon 2024" width="200.000000" height="200.000000" fill="white" fill-opacity="0"/>
		</clipPath>
		<radialGradient id="paint_radial_304_15_0" cx="0.000000" cy="0.000000" r="1.000000" gradientUnits="userSpaceOnUse" gradientTransform="translate(122.5 84.5001) rotate(130.626) scale(125.169 130.505)">
			<stop offset="0.015285" stop-color="#001140"/>
			<stop offset="1.000000" stop-color="#000A24"/>
		</radialGradient>
	</defs>
	<g clip-path="url(#clip304_5)">
		<path id="Vector" d="M200 100C200 155.22 155.22 200 100 200C44.77 200 0 155.22 0 100C0 44.77 44.77 0 100 0C155.22 0 200 44.77 200 100Z" fill="url(#paint_radial_304_15_0)" fill-opacity="1.000000" fill-rule="evenodd"/>
		<path id="path" d="M188.29 78.6L187.59 75.11L157.91 69.93L175.15 46.59L173.15 44.4L147.78 56.57L150.99 24.26L148.38 22.76L132.94 48.89L115.59 10L112.58 10L116.69 47.59L73.07 12.69L69.36 13.78L102.95 55.97L36.47 33.83L33.46 37.22L92.83 71.03L10.9 77.81L10 82.89L95.13 92.17L24.13 150.9L27.14 154.99L111.68 109.02L94.93 190L100.05 190L132.44 113.81L152.19 173.44L155.7 170.75L147.58 110.12L178.36 145.02L180.37 141.83L156.8 98.55L189.7 110.72L190 107.03L160.51 85.29L188.29 78.6Z" fill="#FFBC0D" fill-opacity="1.000000" fill-rule="nonzero"/>
	</g>
</svg>
