<svg width="40.000000" height="40.000000" viewBox="0 0 40 40" fill="none" xmlns="http://www.w3.org/2000/svg" xmlns:xlink="http://www.w3.org/1999/xlink">
	<desc>
			Created with Pixso.
	</desc>
	<defs/>
	<path id="path" d="M39.62 15.24L39.46 14.47L32.86 13.31L36.7 8.13L36.25 7.64L30.61 10.34L31.33 3.16L30.75 2.83L27.32 8.64L23.46 0L22.79 0L23.71 8.35L14.01 0.59L13.19 0.84L20.65 10.21L5.88 5.29L5.21 6.04L18.4 13.56L0.2 15.06L0 16.19L18.91 18.26L3.14 31.31L3.81 32.22L22.59 22L18.87 40L20.01 40L27.2 23.06L31.59 36.32L32.37 35.72L30.57 22.24L37.41 30L37.86 29.29L32.62 19.67L39.93 22.38L40 21.56L33.44 16.73L39.62 15.24Z" fill="#FFBC0D" fill-opacity="1.000000" fill-rule="nonzero"/>
</svg>
