<?xml version="1.0" encoding="UTF-8" standalone="no"?>
<svg
   xmlns:dc="http://purl.org/dc/elements/1.1/"
   xmlns:cc="http://creativecommons.org/ns#"
   xmlns:rdf="http://www.w3.org/1999/02/22-rdf-syntax-ns#"
   xmlns:svg="http://www.w3.org/2000/svg"
   xmlns="http://www.w3.org/2000/svg"
   xmlns:sodipodi="http://sodipodi.sourceforge.net/DTD/sodipodi-0.dtd"
   xmlns:inkscape="http://www.inkscape.org/namespaces/inkscape"
   width="37"
   height="43"
   viewBox="0 0 37 43"
   version="1.1"
   id="svg8"
   sodipodi:docname="donateilres.svg"
   inkscape:version="0.92.4 (5da689c313, 2019-01-14)">
  <metadata
     id="metadata14">
    <rdf:RDF>
      <cc:Work
         rdf:about="">
        <dc:format>image/svg+xml</dc:format>
        <dc:type
           rdf:resource="http://purl.org/dc/dcmitype/StillImage" />
        <dc:title></dc:title>
      </cc:Work>
    </rdf:RDF>
  </metadata>
  <defs
     id="defs12" />
  <sodipodi:namedview
     pagecolor="#ffffff"
     bordercolor="#666666"
     borderopacity="1"
     objecttolerance="10"
     gridtolerance="10"
     guidetolerance="10"
     inkscape:pageopacity="0"
     inkscape:pageshadow="2"
     inkscape:window-width="1366"
     inkscape:window-height="728"
     id="namedview10"
     showgrid="false"
     inkscape:pagecheckerboard="true"
     inkscape:zoom="5.4883721"
     inkscape:cx="18.5"
     inkscape:cy="21.5"
     inkscape:window-x="0"
     inkscape:window-y="0"
     inkscape:window-maximized="1"
     inkscape:current-layer="svg8" />
  <g
     id="g6"
     fill-rule="nonzero"
     fill="none"
     style="fill:#f57707;fill-opacity:1">
    <path
       d="M18.692 25.041h-2.906a.63.63 0 0 1-.445-.175.502.502 0 0 1-.152-.415l.257-2.626c.025-.28.285-.495.596-.494h2.907c.17 0 .33.063.445.176.113.112.169.263.152.414l-.257 2.627c-.025.28-.285.494-.597.493zM19.158 19.898h-2.96a.582.582 0 0 1-.593-.571l.806-8.875a.585.585 0 0 1 .592-.503h2.96c.327 0 .593.256.593.571l-.83 8.88a.585.585 0 0 1-.568.498z"
       id="path2"
       fill="url(#logo)"
       style="fill:#f57707;fill-opacity:1" />
    <path
       d="M36.566 9.549L28.898.63A1.81 1.81 0 0 0 27.525 0H4.56a1.803 1.803 0 0 0-1.8 1.616L.006 32.896c-.044.503.126 1 .468 1.373a1.81 1.81 0 0 0 1.332.582h4.51L5.63 43l8.869-8.143h10.074c.47 0 .922-.18 1.26-.507l9.462-9.155c.312-.302.504-.705.541-1.137l1.157-13.184a1.794 1.794 0 0 0-.427-1.325zm-7.013 11.994a1.796 1.796 0 0 1-.541 1.142l-5.478 5.197a1.81 1.81 0 0 1-1.249.496h-13.4a1.831 1.831 0 0 1-1.324-.59 1.816 1.816 0 0 1-.476-1.365L8.707 8.11a1.803 1.803 0 0 1 1.8-1.616h13.628c.522 0 1.02.226 1.362.62l4.326 4.976c.326.358.494.832.465 1.314l-.735 8.138z"
       id="path4"
       fill="url(#logo)"
       style="fill:#f57707;fill-opacity:1" />
  </g>
</svg>
