<?xml version="1.0" encoding="UTF-8" standalone="no"?>
<svg
   xmlns:dc="http://purl.org/dc/elements/1.1/"
   xmlns:cc="http://creativecommons.org/ns#"
   xmlns:rdf="http://www.w3.org/1999/02/22-rdf-syntax-ns#"
   xmlns:svg="http://www.w3.org/2000/svg"
   xmlns="http://www.w3.org/2000/svg"
   xmlns:xlink="http://www.w3.org/1999/xlink"
   xmlns:sodipodi="http://sodipodi.sourceforge.net/DTD/sodipodi-0.dtd"
   xmlns:inkscape="http://www.inkscape.org/namespaces/inkscape"
   viewBox="0 0 30 30"
   version="1.1"
   id="svg4"
   sodipodi:docname="owl.svg"
   inkscape:version="0.92.4 (5da689c313, 2019-01-14)"
   inkscape:export-filename="/home/yurii/ControlYandexMusic/img/owl.png"
   inkscape:export-xdpi="320"
   inkscape:export-ydpi="320">
  <metadata
     id="metadata10">
    <rdf:RDF>
      <cc:Work
         rdf:about="">
        <dc:format>image/svg+xml</dc:format>
        <dc:type
           rdf:resource="http://purl.org/dc/dcmitype/StillImage" />
        <dc:title />
      </cc:Work>
    </rdf:RDF>
  </metadata>
  <defs
     id="defs8">
    <linearGradient
       inkscape:collect="always"
       id="linearGradient1752-6-7">
      <stop
         style="stop-color:#00d8ff;stop-opacity:1"
         offset="0"
         id="stop1773" />
      <stop
         style="stop-color:#1467ff;stop-opacity:1"
         offset="1"
         id="stop1775" />
    </linearGradient>
    <marker
       inkscape:stockid="Arrow1Lstart"
       orient="auto"
       refY="0.0"
       refX="0.0"
       id="marker1722"
       style="overflow:visible"
       inkscape:isstock="true">
      <path
         id="path1720"
         d="M 0.0,0.0 L 5.0,-5.0 L -12.5,0.0 L 5.0,5.0 L 0.0,0.0 z "
         style="fill-rule:evenodd;stroke:none;stroke-width:1pt;stroke-opacity:1;fill:#ffffff;fill-opacity:1"
         transform="scale(0.8) translate(12.5,0)" />
    </marker>
    <marker
       inkscape:stockid="Arrow1Lstart"
       orient="auto"
       refY="0.0"
       refX="0.0"
       id="Arrow1Lstart"
       style="overflow:visible"
       inkscape:isstock="true">
      <path
         id="path1444"
         d="M 0.0,0.0 L 5.0,-5.0 L -12.5,0.0 L 5.0,5.0 L 0.0,0.0 z "
         style="fill-rule:evenodd;stroke:none;stroke-width:1pt;stroke-opacity:1;fill:#ffffff;fill-opacity:1"
         transform="scale(0.8) translate(12.5,0)" />
    </marker>
    <linearGradient
       inkscape:collect="always"
       xlink:href="#linearGradient1752-6-7"
       id="linearGradient1778"
       x1="15.005466"
       y1="7.0234222"
       x2="15.005466"
       y2="26.798443"
       gradientUnits="userSpaceOnUse"
       gradientTransform="matrix(1.1742795,0,0,1.1574825,-2.6141927,-2.3890889)" />
  </defs>
  <sodipodi:namedview
     pagecolor="#ffffff"
     bordercolor="#666666"
     borderopacity="1"
     objecttolerance="10"
     gridtolerance="10"
     guidetolerance="10"
     inkscape:pageopacity="0"
     inkscape:pageshadow="2"
     inkscape:window-width="1366"
     inkscape:window-height="728"
     id="namedview6"
     showgrid="false"
     inkscape:pagecheckerboard="true"
     inkscape:zoom="11.125147"
     inkscape:cx="16.782835"
     inkscape:cy="13.647549"
     inkscape:window-x="0"
     inkscape:window-y="0"
     inkscape:window-maximized="1"
     inkscape:current-layer="svg4" />
  <rect
     style="opacity:1;fill:#ffffff;fill-opacity:1;stroke:#ffffff;stroke-width:1.88254189;stroke-linecap:round;stroke-linejoin:round;stroke-miterlimit:4;stroke-dasharray:none;stroke-dashoffset:0;stroke-opacity:1;paint-order:stroke fill markers"
     id="rect844"
     width="28.117458"
     height="28.117458"
     x="0.94127095"
     y="0.94127071" />
  <path
     d="m 7.9543226,1.0833589 a 1.1743969,1.1575983 0 1 0 0,2.3149652 c 3.2570604,0 5.8713984,2.5769428 5.8713984,5.787413 v 2.3149659 a 1.1743969,1.1575983 0 1 0 2.348559,0 V 9.1857371 c 0,-3.2104702 2.614338,-5.787413 5.871397,-5.787413 a 1.1743969,1.1575983 0 1 0 0,-2.3149652 c -1.390766,0 -2.702515,0.3460193 -3.853103,0.9517581 -0.92303,-0.5956108 -2.020554,-0.9517581 -3.206336,-0.9517581 -1.181896,0 -2.282244,0.347836 -3.204039,0.9404547 C 10.637474,1.4260289 9.3352678,1.0833589 7.9543226,1.0833589 Z M 10.302882,6.870772 A 1.1742795,1.1574825 0 0 0 9.1286024,8.0282545 1.1742795,1.1574825 0 0 0 10.302882,9.1857371 1.1742795,1.1574825 0 0 0 11.477161,8.0282545 1.1742795,1.1574825 0 0 0 10.302882,6.870772 Z m 9.394237,0 A 1.1742795,1.1574825 0 0 0 18.522838,8.0282545 1.1742795,1.1574825 0 0 0 19.697119,9.1857371 1.1742795,1.1574825 0 0 0 20.871397,8.0282545 1.1742795,1.1574825 0 0 0 19.697119,6.870772 Z M 5.605764,9.1857371 A 1.1742795,1.1574825 0 0 0 4.4544196,10.117149 c -1.091348,3.386156 -2.3714942,8.561539 -2.3714942,16.430826 4.697118,0 5.8713972,-3.472446 5.8713972,-3.472446 0,0 1.2203978,1.759251 3.6168724,2.771627 -0.643698,0.620651 -1.068777,1.214 -1.068777,1.214 a 1.1743969,1.1575983 0 1 0 1.949487,1.288604 c 0,0 0.325178,-0.470146 0.853187,-0.949497 0.528009,-0.479351 1.19447,-0.852288 1.694908,-0.852288 0.500439,0 1.166899,0.372937 1.694907,0.852288 0.52801,0.479351 0.853188,0.949497 0.853188,0.949497 a 1.1743969,1.1575983 0 1 0 1.949488,-1.288604 c 0,0 -0.425079,-0.593349 -1.068778,-1.214 2.396475,-1.012376 3.616872,-2.771627 3.616872,-2.771627 0,0 1.17428,3.472446 5.871397,3.472446 0,-7.883029 -1.283493,-13.065413 -2.376081,-16.451173 A 1.1742795,1.1574825 0 0 0 24.394235,9.1857371 1.1742795,1.1574825 0 0 0 23.219957,10.343219 c 0,8.052607 -4.62079,12.73231 -8.219957,12.73231 -3.599167,0 -8.2199566,-4.679703 -8.2199566,-12.73231 A 1.1742795,1.1574825 0 0 0 5.605764,9.1857371 Z"
     id="path2"
     style="fill:#ffffff;fill-opacity:1;stroke:url(#linearGradient1778);stroke-width:1.16585076;stroke-opacity:1"
     inkscape:connector-curvature="0" />
</svg>
