<?xml version="1.0" encoding="UTF-8" standalone="no"?>
<svg
   width="28"
   height="84"
   version="1.1"
   id="svg30"
   sodipodi:docname="setVolume.svg"
   inkscape:version="1.1.2 (b8e25be833, 2022-02-05)"
   xmlns:inkscape="http://www.inkscape.org/namespaces/inkscape"
   xmlns:sodipodi="http://sodipodi.sourceforge.net/DTD/sodipodi-0.dtd"
   xmlns="http://www.w3.org/2000/svg"
   xmlns:svg="http://www.w3.org/2000/svg">
  <defs
     id="defs34" />
  <sodipodi:namedview
     id="namedview32"
     pagecolor="#ffffff"
     bordercolor="#666666"
     borderopacity="1.0"
     inkscape:pageshadow="2"
     inkscape:pageopacity="0.0"
     inkscape:pagecheckerboard="0"
     showgrid="false"
     inkscape:zoom="4.6547619"
     inkscape:cx="-35.554987"
     inkscape:cy="33.7289"
     inkscape:window-width="1920"
     inkscape:window-height="986"
     inkscape:window-x="-11"
     inkscape:window-y="-11"
     inkscape:window-maximized="1"
     inkscape:current-layer="g26" />
  <g
     fill="none"
     fill-rule="evenodd"
     id="g28">
    <path
       d="M0 0h28v28H0z"
       id="path2" />
    <path
       opacity=".2"
       d="M2 2h24v24H2z"
       id="path4" />
    <path
       fill="#222"
       d="M3 17h4.057L15 22V6l-7.972 5H3z"
       id="path6"
       style="fill:#c2c2c2;fill-opacity:1" />
    <path
       fill="#222"
       fill-rule="nonzero"
       d="M19.316 4.368A10.987 10.987 0 0125 14a10.988 10.988 0 01-5.684 9.632l-.895-1.79A8.986 8.986 0 0023 14a8.985 8.985 0 00-4.58-7.842l.895-1.79z"
       id="path8"
       style="fill:#c2c2c2;fill-opacity:1" />
    <path
       fill="#222"
       fill-rule="nonzero"
       d="M17.525 7.95A6.997 6.997 0 0121 14a6.997 6.997 0 01-3.475 6.05l-.898-1.795A4.997 4.997 0 0019 14a4.997 4.997 0 00-2.373-4.255l.898-1.794z"
       id="path10"
       style="fill:#c2c2c2;fill-opacity:1" />
    <path
       d="M0 28h28v28H0z"
       id="path12" />
    <path
       opacity=".2"
       d="M2 30h24v24H2z"
       id="path14" />
    <path
       fill="#222"
       d="M3 45h4.057L15 50V34l-7.972 5H3z"
       id="path16"
       style="fill:#c2c2c2;fill-opacity:1" />
    <path
       fill="#222"
       fill-rule="nonzero"
       d="M17.525 35.95A6.997 6.997 0 0121 42a6.997 6.997 0 01-3.475 6.05l-.898-1.795A4.997 4.997 0 0019 42a4.997 4.997 0 00-2.373-4.255l.898-1.794z"
       id="path18"
       style="fill:#c2c2c2;fill-opacity:1" />
    <g
       id="g26">
      <path
         d="M0 56h28v28H0z"
         id="path20" />
      <path
         opacity=".2"
         d="M2 58h24v24H2z"
         id="path22" />
      <path
         fill="#222"
         d="M3 73h4.057L15 78V62l-7.972 5H3zM21 71.414l2.828 2.829 1.415-1.415L22.414 70l2.829-2.828-1.415-1.415L21 68.586l-2.828-2.829-1.415 1.415L19.586 70l-2.829 2.828 1.415 1.415L21 71.414z"
         id="path24"
         style="fill:#c2c2c2;fill-opacity:1" />
    </g>
  </g>
</svg>
