<?xml version="1.0" encoding="UTF-8" standalone="no"?>
<svg
   width="28"
   height="28"
   version="1.1"
   id="svg8"
   sodipodi:docname="toggleShuffle.svg"
   inkscape:version="1.1.2 (b8e25be833, 2022-02-05)"
   xmlns:inkscape="http://www.inkscape.org/namespaces/inkscape"
   xmlns:sodipodi="http://sodipodi.sourceforge.net/DTD/sodipodi-0.dtd"
   xmlns="http://www.w3.org/2000/svg"
   xmlns:svg="http://www.w3.org/2000/svg">
  <defs
     id="defs12" />
  <sodipodi:namedview
     id="namedview10"
     pagecolor="#ffffff"
     bordercolor="#666666"
     borderopacity="1.0"
     inkscape:pageshadow="2"
     inkscape:pageopacity="0.0"
     inkscape:pagecheckerboard="0"
     showgrid="false"
     inkscape:zoom="27.928571"
     inkscape:cx="6.9283887"
     inkscape:cy="11.13555"
     inkscape:window-width="1920"
     inkscape:window-height="986"
     inkscape:window-x="-11"
     inkscape:window-y="-11"
     inkscape:window-maximized="1"
     inkscape:current-layer="g6" />
  <g
     fill="none"
     fill-rule="evenodd"
     id="g6">
    <path
       d="M0 0h28v28H0z"
       id="path2" />
    <path
       fill="#222"
       fill-rule="nonzero"
       d="M20 18v-2l4 3-4 3v-2c-2.328 0-3.684-.527-5.13-2.26l1.186-1.718C17.22 17.396 18.351 18 20 18zm0-10V6l4 3-4 3v-2c-2.564 0-3.876 1.46-6 5-2.376 3.96-3.73 5-7 5H4v-2h3c2.564 0 3.876-1.46 6-5 2.376-3.96 3.73-5 7-5zm-7.729 2.431l-1.267 1.619C9.82 10.626 8.678 10 7 10H4V8h3c2.403 0 3.771.561 5.271 2.431z"
       id="path4"
       style="fill:#c2c2c2;fill-opacity:1" />
  </g>
</svg>
