<?xml version="1.0" encoding="UTF-8"?>
<svg width="28" height="28" version="1.1" xmlns="http://www.w3.org/2000/svg">
 <g fill="none" fill-rule="evenodd">
  <path d="m0 0h28v28h-28z"/>
  <path d="m2 2h24v24h-24z" opacity=".2"/>
  <g fill="#c2c2c2">
   <path d="m3 17h4.057l7.943 5v-16l-7.972 5h-4.028z"/>
   <path d="m19.316 4.368a10.987 10.987 0 0 1 5.684 9.632 10.988 10.988 0 0 1-5.684 9.632l-0.895-1.79a8.986 8.986 0 0 0 4.579-7.842 8.985 8.985 0 0 0-4.58-7.842l0.895-1.79z" fill-rule="nonzero"/>
   <path d="m17.525 7.95a6.997 6.997 0 0 1 3.475 6.05 6.997 6.997 0 0 1-3.475 6.05l-0.898-1.795a4.997 4.997 0 0 0 2.373-4.255 4.997 4.997 0 0 0-2.373-4.255l0.898-1.794z" fill-rule="nonzero"/>
  </g>
 </g>
</svg>
